<?xml version="1.0" encoding="UTF-8" standalone="no"?>
<!-- Created with Inkscape (http://www.inkscape.org/) -->

<svg
   width="100"
   height="138"
   viewBox="0 0 26.458333 36.512501"
   version="1.1"
   id="svg4633"
   xmlns="http://www.w3.org/2000/svg"
   xmlns:svg="http://www.w3.org/2000/svg">
  <defs
     id="defs4630" />
  <g
     id="layer1">
    <path
       id="path4127"
       style="fill:black;fill-opacity:0.988235;stroke-width:0.290641"
       d="M 13.814428,0.01937331 A 13.11007,12.731762 0 0 0 0.25246444,10.156152 13.11007,12.731762 0 0 0 0.01837021,13.125976 c -0.37639747,6.927052 5.09936759,13.300893 10.17612279,20.005875 1.227054,1.514606 2.940595,3.181357 3.023072,3.380649 l 2.753837,-3.235441 C 22.247831,25.127188 31.417675,13.228839 23.198351,4.6278455 A 13.11007,12.731762 0 0 0 15.662377,0.24726479 13.11007,12.731762 0 0 0 13.814428,0.01937331 Z M 13.267174,6.9754895 a 6.4417347,6.5482454 0 0 1 1.11156,0.1250563 6.4417347,6.5482454 0 0 1 5.06119,7.6651122 6.4417347,6.5482454 0 0 1 -7.507036,5.193445 l -0.16123,-0.03307 A 6.4417347,6.5482454 0 0 1 6.8071031,12.197356 6.4417347,6.5482454 0 0 1 13.267174,6.9754895 Z" />
  </g>
</svg>
